<svg xmlns="http://www.w3.org/2000/svg" viewBox="0 0 253.19 291.98"><defs><style>.cls-1{fill:#eca246;}.cls-2{fill:#f5c32e;}.cls-3{fill:#fbe7b7;}.cls-4{fill:#ec9844;}.cls-5{fill:none;stroke:#231815;stroke-linecap:round;stroke-linejoin:round;stroke-width:4px;}</style></defs><path class="cls-1" d="M678.51,286.81a126.64,126.64,0,0,1-.71,13.42h0C579,337,544.58,259.47,544.58,259.47c68.29,65.36,129.54-5.53,129.54-5.53A124.16,124.16,0,0,1,678.51,286.81Z" transform="translate(-427.32 -121.43)"/><path class="cls-2" d="M677.79,300.23h0a124.14,124.14,0,0,1-32.35,71.1s-81.09-9.23-100.87-111.86C544.58,259.47,579,337,677.79,300.23Z" transform="translate(-427.32 -121.43)"/><path class="cls-1" d="M645.45,371.33A124.64,124.64,0,0,1,591,405.8S511.08,364,544.58,259.47C564.36,362.1,645.45,371.33,645.45,371.33Z" transform="translate(-427.32 -121.43)"/><path class="cls-1" d="M634.77,233.3l4.42,26.47-33.63-3C625.51,247.89,634.77,233.3,634.77,233.3Z" transform="translate(-427.32 -121.43)"/><path class="cls-3" d="M587.69,166.86c7.15,2.21,43.93,16,47.08,66.44,0,0-9.26,14.59-29.21,23.51-14.49,6.48-34.64,10-61,2.66-48.55-16-108.62,60.64-96.57,93a124.62,124.62,0,0,1,97.21-190s-4.2-15,1.29-39.08c20.34,36.85,40,43.09,40,43.09h0l.24.07Z" transform="translate(-427.32 -121.43)"/><path class="cls-2" d="M544.58,259.47C511.08,364,591,405.8,591,405.8a125,125,0,0,1-95.49-8.9h0S467.12,311,544.58,259.47Z" transform="translate(-427.32 -121.43)"/><path class="cls-4" d="M448,352.47c-12.05-32.36,48-109,96.57-93C467.12,311,495.52,396.89,495.52,396.89h0A125.05,125.05,0,0,1,448,352.47Z" transform="translate(-427.32 -121.43)"/><path class="cls-5" d="M587.69,166.86a124.49,124.49,0,0,1,90.82,120,126.64,126.64,0,0,1-.71,13.42A124.6,124.6,0,1,1,545.22,162.51s-4.2-15,1.29-39.08c20.34,36.85,40,43.09,40,43.09" transform="translate(-427.32 -121.43)"/><path class="cls-5" d="M586.54,166.53l.24.07" transform="translate(-427.32 -121.43)"/><path class="cls-5" d="M586.49,166.52h0l.24.07.91.26c7.15,2.21,43.93,16,47.08,66.44,0,0-9.26,14.59-29.21,23.51-14.49,6.48-34.64,10-61,2.66" transform="translate(-427.32 -121.43)"/><path class="cls-5" d="M674.12,253.94s-61.25,70.89-129.54,5.53c0,0,34.45,77.56,133.21,40.76" transform="translate(-427.32 -121.43)"/><path class="cls-5" d="M544.58,259.47C564.36,362.1,645.45,371.33,645.45,371.33" transform="translate(-427.32 -121.43)"/><path class="cls-5" d="M544.58,259.47C511.08,364,591,405.8,591,405.8" transform="translate(-427.32 -121.43)"/><path class="cls-5" d="M448,352.47c-12.05-32.36,48-109,96.57-93C467.12,311,495.52,396.89,495.52,396.89" transform="translate(-427.32 -121.43)"/><polyline class="cls-5" points="207.45 111.87 211.87 138.34 178.24 135.38"/></svg>