<svg xmlns="http://www.w3.org/2000/svg" viewBox="0 0 273.19 311.98"><defs><style>.cls-1,.cls-7{fill:none;stroke-linecap:round;stroke-linejoin:round;}.cls-1{stroke:#fff;stroke-width:24px;}.cls-2{fill:#fff;}.cls-3{fill:#eca246;}.cls-4{fill:#f5c32e;}.cls-5{fill:#fbe7b7;}.cls-6{fill:#ec9844;}.cls-7{stroke:#231815;stroke-width:4px;}</style></defs><title>画板 1</title><g id="图层_2" data-name="图层 2"><path class="cls-1" d="M129.19,12c20.34,36.85,40,43.09,40,43.09a124.67,124.67,0,1,1-41.27-4S123.7,36,129.19,12Z"/></g><g id="图层_1" data-name="图层 1"><path class="cls-2" d="M170.37,55.43a124.77,124.77,0,0,1,86.43,87.08S195.55,213.4,127.26,148c26.34,7.31,46.49,3.82,61-2.66l33.63,3-4.42-26.47C214.3,71.41,177.52,57.64,170.37,55.43Z"/><path class="cls-3" d="M261.19,175.38a126.64,126.64,0,0,1-.71,13.42h0C161.71,225.6,127.26,148,127.26,148c68.29,65.36,129.54-5.53,129.54-5.53A124.16,124.16,0,0,1,261.19,175.38Z"/><path class="cls-4" d="M260.47,188.8h0a124.14,124.14,0,0,1-32.35,71.1S147,250.67,127.26,148C127.26,148,161.71,225.6,260.47,188.8Z"/><path class="cls-3" d="M228.13,259.9a124.64,124.64,0,0,1-54.45,34.47S93.76,252.54,127.26,148C147,250.67,228.13,259.9,228.13,259.9Z"/><path class="cls-3" d="M217.45,121.87l4.42,26.47-33.63-3C208.19,136.46,217.45,121.87,217.45,121.87Z"/><path class="cls-5" d="M170.37,55.43c7.15,2.21,43.93,16,47.08,66.44,0,0-9.26,14.59-29.21,23.51-14.49,6.48-34.64,10-61,2.66-48.55-16-108.62,60.64-96.57,93a124.62,124.62,0,0,1,97.21-190S123.7,36,129.19,12c20.34,36.85,40,43.09,40,43.09h.05l.24.07Z"/><path class="cls-4" d="M127.26,148c-33.5,104.5,46.42,146.33,46.42,146.33a125,125,0,0,1-95.49-8.9h0S49.8,199.55,127.26,148Z"/><path class="cls-6" d="M30.69,241c-12-32.36,48-109,96.57-93C49.8,199.55,78.2,285.46,78.2,285.46h0A125.05,125.05,0,0,1,30.69,241Z"/><path class="cls-7" d="M170.37,55.43a124.49,124.49,0,0,1,90.82,120,126.64,126.64,0,0,1-.71,13.42A124.6,124.6,0,1,1,127.9,51.08S123.7,36,129.19,12c20.34,36.85,40,43.09,40,43.09"/><path class="cls-7" d="M169.22,55.1l.24.07"/><path class="cls-7" d="M169.17,55.09h.05l.24.07.91.26c7.15,2.21,43.93,16,47.08,66.44,0,0-9.26,14.59-29.21,23.51-14.49,6.48-34.64,10-61,2.66"/><path class="cls-7" d="M256.8,142.51S195.55,213.4,127.26,148c0,0,34.45,77.56,133.21,40.76"/><path class="cls-7" d="M127.26,148C147,250.67,228.13,259.9,228.13,259.9"/><path class="cls-7" d="M127.26,148c-33.5,104.5,46.42,146.33,46.42,146.33"/><path class="cls-7" d="M30.69,241c-12-32.36,48-109,96.57-93C49.8,199.55,78.2,285.46,78.2,285.46"/><polyline class="cls-7" points="217.45 121.87 221.87 148.34 188.24 145.38"/></g></svg>